<?xml version="1.0" encoding="UTF-8" standalone="no"?>
<svg xmlns="http://www.w3.org/2000/svg" xmlns:xlink="http://www.w3.org/1999/xlink" width="48" height="48">
  <defs>
    <linearGradient id="b">
      <stop offset="0" stop-color="#fff"/>
      <stop offset="1" stop-color="#d6d6d2"/>
    </linearGradient>
    <linearGradient id="a">
      <stop offset="0"/>
      <stop offset="1" stop-opacity="0"/>
    </linearGradient>
    <linearGradient xlink:href="#a" id="h" x1="20.662" x2="22.627" y1="35.818" y2="36.218" gradientTransform="matrix(1.3161 .24303 -.24303 1.3161 -9.2621 -16.074)" gradientUnits="userSpaceOnUse"/>
    <linearGradient xlink:href="#a" id="g" x1="22.687" x2="21.408" y1="36.39" y2="35.74" gradientTransform="matrix(-1.3085 .28115 .28115 1.3085 57.412 -17.238)" gradientUnits="userSpaceOnUse"/>
    <linearGradient xlink:href="#a" id="d" x1="22.687" x2="21.408" y1="36.39" y2="35.74" gradientTransform="matrix(-1.3085 .28115 .28115 1.3085 39.091 -26.212)" gradientUnits="userSpaceOnUse"/>
    <linearGradient id="c" x1="30.936" x2="30.936" y1="29.553" y2="35.803" gradientTransform="translate(-33.479 -20.7) scale(1.3384)" gradientUnits="userSpaceOnUse">
      <stop offset="0" stop-color="#fff"/>
      <stop offset="1" stop-color="#c9c9c9"/>
    </linearGradient>
    <radialGradient id="i" cx="31.113" cy="19.009" r="8.6621" gradientUnits="userSpaceOnUse">
      <stop offset="0"/>
      <stop offset="1" stop-opacity="0"/>
    </radialGradient>
    <radialGradient xlink:href="#b" id="f" cx="24.754" cy="26.814" r="17.986" gradientTransform="matrix(1.3545 0 0 1.3664 -8.9475 -9.8714)" gradientUnits="userSpaceOnUse"/>
    <radialGradient xlink:href="#b" id="j" cx="29.922" cy="17.728" r="17.986" gradientTransform="matrix(.55849 0 0 .56339 14.871 4.3641)" gradientUnits="userSpaceOnUse"/>
    <filter id="e" width="1.1522" height="1.5669" x="-.076111" y="-.28345">
      <feGaussianBlur stdDeviation="1.4531044"/>
    </filter>
  </defs>
  <g fill-rule="evenodd" color="#000">
    <path fill="url(#c)" d="M13.365 24.85h5.679l-3.313-3.075-.709.946-.71-.71-.947 2.839z"/>
    <path fill="url(#d)" d="M19.883 32.491c1.648-.778 2.415-2.68 2.415-2.68-1.284-5.411-5.322-9.158-5.322-9.158s3.299 8.488 2.907 11.838z" opacity=".22785"/>
  </g>
  <g color="#000">
    <rect width="38.184" height="10.253" x="5.3033" y="35.449" display="block" filter="url(#e)" opacity=".34857" rx="5.1265" ry="5.1265" transform="translate(1.5812 2.2763) scale(.93519)"/>
    <path fill="url(#f)" fill-rule="evenodd" stroke="#888a85" stroke-linecap="round" stroke-linejoin="round" d="M17.919 43.517h14.195c4.022 0 8.004-1.475 9.464-5.678 1.386-3.992.236-11.593-8.754-17.744H16.026c-8.9902 5.678-10.114 13.443-8.0438 17.98 2.1088 4.623 5.6778 5.442 9.9368 5.442z"/>
    <path fill="url(#g)" fill-rule="evenodd" d="M38.204 41.464c1.648-.777 2.415-2.68 2.415-2.68-1.284-5.41-5.322-9.158-5.322-9.158s3.299 8.489 2.907 11.838z" opacity=".29121"/>
    <path fill="url(#h)" fill-rule="evenodd" d="M11.643 42.046c-1.6697-.729-2.4171-2.487-2.4171-2.487 1.1261-5.446 4.9791-9.43 4.9791-9.43s-3.051 8.581-2.562 11.917z" opacity=".54945"/>
    <path fill="none" stroke="#fff" stroke-linecap="round" stroke-linejoin="round" d="m17.593 42.483 14.528-.031c3.654 0 7.273-1.34 8.599-5.159 1.259-3.627-.131-10.534-8.3-16.123l-15.956-.337c-8.1688 5.16-9.75 12.215-7.8386 16.675 1.9116 4.459 4.7006 4.944 8.9676 4.975z" opacity=".64286"/>
    <path fill="url(#i)" fill-rule="evenodd" d="M39.775 19.009a8.6621 8.6621 0 1 1-17.324 0 8.6621 8.6621 0 1 1 17.324 0z" transform="translate(-17.027 -7.5224) scale(1.3384)"/>
    <path fill="url(#j)" fill-rule="evenodd" stroke="#888a85" stroke-linecap="round" stroke-linejoin="round" stroke-width=".74719" d="M39.775 19.009a8.6621 8.6621 0 1 1-17.324 0 8.6621 8.6621 0 1 1 17.324 0z" transform="translate(-16.86 -12.207) scale(1.3384)"/>
    <path fill="none" stroke="#fff" stroke-linecap="round" stroke-linejoin="round" stroke-width=".9999787" d="M35.3046025 13.2336359a10.52531771 10.52531771 0 1 1-21.0503924 0 10.52531771 10.52531771 0 1 1 21.0503924 0z" opacity=".1962"/>
  </g>
</svg>